<?xml version="1.0" encoding="UTF-8"?>
<svg width="33px" height="24px" viewBox="0 0 33 24" version="1.1" xmlns="http://www.w3.org/2000/svg" xmlns:xlink="http://www.w3.org/1999/xlink">
    <!-- Generator: sketchtool 60.1 (101010) - https://sketch.com -->
    <title>7EA2116B-92C6-4A8F-977F-7A7C06521047</title>
    <desc>Created with sketchtool.</desc>
    <g id="Mobile-UI" stroke="none" strokeWidth="1" fill="none" fillRule="evenodd">
        <g id="JYBE-review-1" transform="translate(-112.000000, -333.000000)" fill="#FFFFFF">
            <g id="Group-8" transform="translate(25.000000, 322.000000)">
                <g id="camera" transform="translate(87.000000, 11.000000)">
                    <path d="M16.1860465,19.6982456 C12.4325581,19.6982456 9.38372093,16.6245614 9.38372093,12.8561404 C9.38372093,9.0877193 12.4325581,6.01403509 16.1860465,6.01403509 C19.9395349,6.01403509 22.9883721,9.0877193 22.9883721,12.8561404 C22.9883721,16.6245614 19.9395349,19.6982456 16.1860465,19.6982456 Z M16.1860465,7.71929825 C13.3744186,7.71929825 11.0860465,10.0210526 11.0860465,12.8491228 C11.0860465,15.677193 13.3744186,17.9789474 16.1860465,17.9789474 C18.9976744,17.9789474 21.2860465,15.677193 21.2860465,12.8491228 C21.2860465,10.0210526 18.9976744,7.71929825 16.1860465,7.71929825 Z" id="Shape"></path>
                    <path d="M31.4930233,23.9789474 L0.879069767,23.9789474 C0.411627907,23.9789474 0.0279069767,23.5929825 0.0279069767,23.122807 L0.0279069767,4.30175439 C0.0279069767,3.83157895 0.411627907,3.44561404 0.879069767,3.44561404 L8.49767442,3.44561404 L11.0860465,0.329824561 C11.2465116,0.133333333 11.4837209,0.0210526316 11.7418605,0.0210526316 L20.6511628,0.0210526316 C20.9023256,0.0210526316 21.1395349,0.133333333 21.3069767,0.329824561 L23.8953488,3.44561404 L31.5139535,3.44561404 C31.9813953,3.44561404 32.3651163,3.83157895 32.3651163,4.30175439 L32.3651163,23.122807 C32.344186,23.5929825 31.9674419,23.9789474 31.4930233,23.9789474 Z M1.73023256,22.2666667 L30.6488372,22.2666667 L30.6488372,5.15789474 L23.4837209,5.15789474 C23.2325581,5.15789474 22.9953488,5.04561404 22.827907,4.84912281 L20.2395349,1.73333333 L12.1325581,1.73333333 L9.54418605,4.84912281 C9.38372093,5.04561404 9.14651163,5.15789474 8.88837209,5.15789474 L1.73023256,5.15789474 L1.73023256,22.2666667 Z" id="Shape"></path>
                </g>
            </g>
        </g>
    </g>
</svg>