<?xml version="1.0" encoding="UTF-8"?>
<svg width="26px" height="26px" viewBox="0 0 26 26" version="1.1" xmlns="http://www.w3.org/2000/svg" xmlns:xlink="http://www.w3.org/1999/xlink">
    <!-- Generator: sketchtool 60.1 (101010) - https://sketch.com -->
    <title>62732B38-D7EF-4EB9-B5D5-91B17E875DEF</title>
    <desc>Created with sketchtool.</desc>
    <g id="Mobile-UI" stroke="none" strokeWidth="1" fill="none" fillRule="evenodd">
        <g id="JYBE-account-not-logged-in-1" transform="translate(-375.000000, -35.000000)" fill="#27273B" stroke="#27273B" strokeWidth="0.25">
            <g id="gear" transform="translate(376.000000, 36.000000)">
                <path d="M13.8980769,24 L10.1076923,24 C9.77307692,24 9.47884615,23.7513253 9.41538462,23.4216867 L8.95961538,21.0679518 C8.52692308,20.9233735 8.12884615,20.7672289 7.75384615,20.5821687 L5.74615385,21.946988 C5.46923077,22.1320482 5.09423077,22.1031325 4.85192308,21.860241 L2.175,19.1710843 C1.93846154,18.9339759 1.89807692,18.5580723 2.08846154,18.2746988 L3.44423077,16.2737349 C3.25384615,15.8920482 3.08653846,15.4814458 2.94807692,15.053494 L0.588461538,14.5966265 C0.259615385,14.533012 -2.13162821e-14,14.2438554 -2.13162821e-14,13.9026506 L-2.13162821e-14,10.1031325 C-2.13162821e-14,9.76771084 0.259615385,9.47277108 0.594230769,9.40915663 L2.93076923,8.95807229 C3.075,8.51855422 3.23653846,8.11373494 3.42115385,7.73204819 L2.08269231,5.75421687 C1.89230769,5.47662651 1.93269231,5.10072289 2.16923077,4.85783133 L4.85192308,2.17445783 C5.09423077,1.9373494 5.46346154,1.9026506 5.74615385,2.08771084 L7.71346154,3.42939759 C8.10576923,3.23277108 8.52115385,3.06506024 8.95961538,2.92048193 L9.40961538,0.578313253 C9.47307692,0.248674699 9.76153846,0 10.1019231,0 L13.8923077,0 C14.2269231,0 14.5211538,0.248674699 14.5846154,0.578313253 L15.0346154,2.9146988 C15.4846154,3.05927711 15.8942308,3.22698795 16.275,3.41204819 L18.2538462,2.07036145 C18.5307692,1.8853012 18.9057692,1.91421687 19.1480769,2.15710843 L21.825,4.84626506 C22.0615385,5.08337349 22.1019231,5.45927711 21.9115385,5.7426506 L20.5615385,7.73204819 C20.7461538,8.11373494 20.9134615,8.51855422 21.0519231,8.94072289 L23.3884615,9.39759036 C23.7173077,9.46120482 23.9480769,9.75036145 23.9480769,10.0915663 L23.9480769,13.8795181 C23.9480769,14.2149398 23.7173077,14.5098795 23.3826923,14.573494 L21.0519231,15.0303614 C20.9076923,15.4756627 20.7461538,15.8804819 20.5673077,16.2563855 L21.9288462,18.2689157 C22.1192308,18.546506 22.0846154,18.9224096 21.8423077,19.1653012 L19.1596154,21.8486747 C18.9230769,22.0915663 18.5480769,22.1262651 18.2653846,21.9354217 L16.2576923,20.5706024 C15.8711538,20.7614458 15.4615385,20.9291566 15.0403846,21.0679518 L14.5846154,23.4274699 C14.5211538,23.7513253 14.2326923,24 13.8980769,24 Z M10.6846154,22.5542169 L13.3153846,22.5542169 L13.7365385,20.3681928 C13.7884615,20.1079518 13.9788462,19.899759 14.2326923,19.8303614 C14.8557692,19.6510843 15.4384615,19.4139759 15.9576923,19.1248193 C16.1884615,18.9975904 16.4769231,19.0091566 16.6961538,19.1595181 L18.5711538,20.4375904 L20.4288462,18.5754217 L19.1596154,16.6959036 C19.0096154,16.4761446 18.9980769,16.1927711 19.1307692,15.9556627 C19.4076923,15.4525301 19.6384615,14.8857831 19.8230769,14.2207229 C19.8923077,13.9662651 20.0826923,13.7696386 20.3423077,13.7233735 L22.5057692,13.3012048 L22.5057692,10.6640964 L20.3423077,10.2361446 C20.0826923,10.1840964 19.8865385,9.99325301 19.8115385,9.73879518 C19.6326923,9.10843373 19.4019231,8.53012048 19.1192308,8.01542169 C18.9923077,7.78409639 19.0038462,7.49493976 19.1538462,7.27518072 L20.4115385,5.41879518 L18.5538462,3.55662651 L16.7076923,4.81156627 C16.4884615,4.96192771 16.2,4.97349398 15.9692308,4.84048193 C15.4730769,4.56289157 14.9019231,4.33156627 14.2269231,4.14072289 C13.9730769,4.0713253 13.7769231,3.86891566 13.7307692,3.6086747 L13.3153846,1.44578313 L10.6788462,1.44578313 L10.2576923,3.61445783 C10.2057692,3.8746988 10.0153846,4.08289157 9.76153846,4.15228916 C9.12115385,4.33156627 8.53269231,4.57445783 8.00769231,4.86939759 C7.77692308,4.99662651 7.48846154,4.98506024 7.26923077,4.8346988 L5.43461538,3.58554217 L3.57692308,5.44771084 L4.82884615,7.29831325 C4.97884615,7.51807229 4.99038462,7.80144578 4.86346154,8.03277108 C4.58653846,8.53012048 4.36153846,9.09686747 4.17692308,9.76192771 C4.10769231,10.0221687 3.88846154,10.213012 3.62884615,10.2650602 L1.44807692,10.6872289 L1.44807692,13.3243373 L3.63461538,13.746506 C3.89423077,13.7985542 4.10769231,13.9893976 4.17692308,14.2438554 C4.35576923,14.8742169 4.59230769,15.4525301 4.88653846,15.973012 C5.01346154,16.2043373 5.00192308,16.493494 4.85769231,16.713253 L3.58846154,18.586988 L5.44615385,20.4491566 L7.32115385,19.1768675 C7.54038462,19.026506 7.82307692,19.0149398 8.05961538,19.1421687 C8.55576923,19.419759 9.11538462,19.6453012 9.77307692,19.8303614 C10.0269231,19.9055422 10.2230769,20.1021687 10.2692308,20.3624096 L10.6846154,22.5542169 Z M23.2557692,14.1108434 L23.2757692,14.1108434 L23.2557692,14.1108434 Z M12,17.540241 C10.5346154,17.540241 9.14423077,16.9677108 8.08846154,15.9151807 C6.83076923,14.6544578 6.26538462,12.9079518 6.53653846,11.1209639 C6.89423077,8.76722892 8.78653846,6.87614458 11.1346154,6.51180723 C12.9057692,6.24 14.6538462,6.80674699 15.9115385,8.06746988 C17.1692308,9.32819277 17.7403846,11.0746988 17.4692308,12.8616867 C17.1115385,15.2154217 15.2192308,17.106506 12.8769231,17.4708434 L12.8769231,17.4708434 C12.5826923,17.5171084 12.2884615,17.540241 12,17.540241 Z M12.7673077,16.9445783 L12.7873077,16.9445783 L12.7673077,16.9445783 Z M12.0057692,7.85927711 C11.7865385,7.85927711 11.5730769,7.87662651 11.3480769,7.9113253 C9.62884615,8.1773494 8.19230769,9.6173494 7.92692308,11.3349398 C7.725,12.6708434 8.14615385,13.9778313 9.08653846,14.9204819 C10.0269231,15.8631325 11.3307692,16.2853012 12.6634615,16.0828916 C14.3826923,15.8168675 15.8192308,14.3768675 16.0788462,12.653494 C16.2807692,11.3175904 15.8596154,10.0106024 14.9192308,9.06795181 C14.1346154,8.28144578 13.1019231,7.85927711 12.0057692,7.85927711 Z" id="Shape"></path>
            </g>
        </g>
    </g>
</svg>