<?xml version="1.0" encoding="UTF-8"?>
<svg width="32px" height="19px" viewBox="0 0 32 19" version="1.1" xmlns="http://www.w3.org/2000/svg" xmlns:xlink="http://www.w3.org/1999/xlink">
    <!-- Generator: sketchtool 60.1 (101010) - https://sketch.com -->
    <title>AFF232B7-CB7D-45A5-A3DA-F342C4FCBDCE</title>
    <desc>Created with sketchtool.</desc>
    <g id="Mobile-UI" stroke="none" strokeWidth="1" fill="none" fillRule="evenodd">
        <g id="JYBE-account-not-logged-in-2" transform="translate(-247.000000, -481.000000)" fill="#E84C37">
            <g id="Group-8" transform="translate(118.000000, 455.000000)">
                <g id="Group-7" transform="translate(109.000000, 0.000000)">
                    <g id="Group-2" transform="translate(20.000000, 26.000000)">
                        <path d="M9.334,18.668 C4.172,18.668 -3.28626015e-14,14.494 -3.28626015e-14,9.334 C-3.28626015e-14,4.174 4.172,-8.34887715e-14 9.334,-8.34887715e-14 C11.854,-8.34887715e-14 13.96,0.92 15.588,2.44 L13.054,4.88 C12.36,4.214 11.146,3.44 9.334,3.44 C6.148,3.44 3.548,6.08 3.548,9.334 C3.548,12.588 6.148,15.228 9.334,15.228 C13.028,15.228 14.414,12.574 14.628,11.202 L9.334,11.202 L9.334,8.002 L18.146,8.002 C18.228,8.468 18.294,8.936 18.294,9.548 C18.292,14.88 14.72,18.668 9.334,18.668 Z" id="Path"></path>
                        <polygon id="Path" points="32 10.668 28 10.668 28 14.668 25.332 14.668 25.332 10.668 21.332 10.668 21.332 8.002 25.332 8.002 25.332 4.002 28 4.002 28 8.002 32 8.002"></polygon>
                    </g>
                </g>
            </g>
        </g>
    </g>
</svg>