<?xml version="1.0" encoding="UTF-8"?>
<svg width="27px" height="23px" viewBox="0 0 27 23" version="1.1" xmlns="http://www.w3.org/2000/svg" xmlns:xlink="http://www.w3.org/1999/xlink">
    <!-- Generator: sketchtool 60.1 (101010) - https://sketch.com -->
    <title>99746163-FE72-4ECB-ACD9-7842EB0BE2DC</title>
    <desc>Created with sketchtool.</desc>
    <g id="Mobile-UI" stroke="none" strokeWidth="1" fill="none" fillRule="evenodd">
        <g id="Home-1-mockup" transform="translate(-47.000000, -1334.000000)" fill="#F56D70">
            <g id="Group-2" transform="translate(0.000000, 1286.000000)">
                <g id="Group-3">
                    <g id="home" transform="translate(47.000000, 48.000000)">
                        <path d="M26.0405248,8.92930328 L13.6097708,0.138319672 C13.3511816,-0.0461065574 13.000239,-0.0461065574 12.7416498,0.138319672 L0.317052654,8.92930328 C-0.0215761089,9.16905738 -0.101615635,9.63627049 0.138502942,9.97438525 C0.37862152,10.3125 0.8465449,10.392418 1.18517366,10.1526639 L1.91784317,9.63627049 L1.91784317,21.6362705 C1.91784317,22.0481557 2.25647193,22.3862705 2.66898333,22.3862705 L10.1742281,22.3862705 C10.5867395,22.3862705 10.9253683,22.0481557 10.9253683,21.6362705 L10.9253683,14.8862705 L15.4260523,14.8862705 L15.4260523,21.630123 C15.4260523,22.0420082 15.7646811,22.380123 16.1771925,22.380123 L23.6824373,22.380123 C24.0949487,22.380123 24.4335774,22.0420082 24.4335774,21.630123 L24.4335774,9.63012295 L25.1662469,10.1465164 C25.2955416,10.2387295 25.4494637,10.2817623 25.597229,10.2817623 C25.8311907,10.2817623 26.0651524,10.1711066 26.2129177,9.9682377 C26.4530362,9.63627049 26.3791536,9.16905738 26.0405248,8.92930328 Z M22.937454,20.880123 L16.9344896,20.880123 L16.9344896,14.1362705 C16.9344896,13.7243852 16.5958608,13.3862705 16.1833494,13.3862705 L10.180385,13.3862705 C9.76787357,13.3862705 9.42924481,13.7243852 9.42924481,14.1362705 L9.42924481,20.880123 L3.4201235,20.880123 L3.4201235,8.5727459 L13.1787887,1.66905738 L22.937454,8.5727459 L22.937454,20.880123 Z" id="Shape"></path>
                    </g>
                </g>
            </g>
        </g>
    </g>
</svg>