<?xml version="1.0" encoding="UTF-8"?>
<svg width="65px" height="65px" viewBox="0 0 65 65" version="1.1" xmlns="http://www.w3.org/2000/svg" xmlns:xlink="http://www.w3.org/1999/xlink">
    <!-- Generator: sketchtool 60.1 (101010) - https://sketch.com -->
    <title>8B6DDFF2-5E20-438D-B414-D13EBC6BE51A</title>
    <desc>Created with sketchtool.</desc>
    <g id="Mobile-UI" stroke="none" strokeWidth="1" fill="none" fillRule="evenodd">
        <g id="Home-1" transform="translate(-160.000000, -80.000000)">
            <g id="Group-8" transform="translate(160.000000, 80.000000)">
                <circle id="Oval-Copy-8" fill="#E0E3E7" cx="32.5" cy="32.5" r="32.5"></circle>
                <g id="Group-2-Copy-2" transform="translate(21.272727, 17.727273)" stroke="#27273B" strokeWidth="1.77272727">
                    <path d="M11.6430976,-1.0125234e-13 C18.0734029,-1.0125234e-13 23.2861953,5.21279237 23.2861953,11.6430976 C23.2861953,18.0734029 11.6430976,29.4141414 11.6430976,29.4141414 C11.6430976,29.4141414 3.33955086e-13,18.0734029 3.33955086e-13,11.6430976 C3.33955086e-13,5.21279237 5.21279237,-1.0125234e-13 11.6430976,-1.0125234e-13 Z M11.6430976,6.74074074 C8.93560069,6.74074074 6.74074074,8.93560069 6.74074074,11.6430976 C6.74074074,14.3505946 8.93560069,16.5454545 11.6430976,16.5454545 C14.3505946,16.5454545 16.5454545,14.3505946 16.5454545,11.6430976 C16.5454545,8.93560069 14.3505946,6.74074074 11.6430976,6.74074074 Z" id="Combined-Shape"></path>
                </g>
            </g>
        </g>
    </g>
</svg>