<?xml version="1.0" encoding="UTF-8"?>
<svg width="20px" height="26px" viewBox="0 0 20 26" version="1.1" xmlns="http://www.w3.org/2000/svg" xmlns:xlink="http://www.w3.org/1999/xlink">
    <!-- Generator: sketchtool 60.1 (101010) - https://sketch.com -->
    <title>2F0BA1DF-8476-45A4-AE87-58B6AA774D94</title>
    <desc>Created with sketchtool.</desc>
    <g id="Mobile-UI" stroke="none" strokeWidth="1" fill="none" fillRule="evenodd">
        <g id="account-not-logged-in-2" transform="translate(-59.000000, -259.000000)" fill="#27273B" stroke="#27273B" strokeWidth="0.25">
            <g id="Group-4" transform="translate(45.000000, 248.000000)">
                <g id="Group-6" transform="translate(15.000000, 12.000000)">
                    <path d="M9,16.5 C8.17275,16.5 7.5,15.82725 7.5,15 C7.5,14.17275 8.17275,13.5 9,13.5 C9.82725,13.5 10.5,14.17275 10.5,15 C10.5,15.82725 9.82725,16.5 9,16.5 M9,12 C7.3455,12 6,13.3455 6,15 C6,16.39425 6.96,17.5575 8.25,17.89275 L8.25,19.5 C8.25,19.91475 8.586,20.25 9,20.25 C9.414,20.25 9.75,19.91475 9.75,19.5 L9.75,17.89275 C11.04075,17.5575 12,16.39425 12,15 C12,13.3455 10.6545,12 9,12" id="Fill-1"></path>
                    <path d="M16.5,15.8379 C16.5,19.6509 12.54075,22.50015 9,22.50015 C5.45925,22.50015 1.5,19.6509 1.5,15.8379 L1.5,10.50015 L16.5,10.50015 L16.5,15.8379 Z M6.75,9.00015 L6.75,6.75015 C6.75,5.50965 7.7595,4.50015 9,4.50015 C10.2405,4.50015 11.25,5.50965 11.25,6.75015 L11.25,9.00015 L6.75,9.00015 Z M3.75,6.75015 C3.75,3.85515 6.105,1.50015 9,1.50015 C11.895,1.50015 14.25,3.85515 14.25,6.75015 L14.25,9.00015 L12.75,9.00015 L12.75,6.75015 C12.75,4.6824 11.06775,3.00015 9,3.00015 C6.93225,3.00015 5.25,4.6824 5.25,6.75015 L5.25,9.00015 L3.75,9.00015 L3.75,6.75015 Z M17.25,9.00015 L15.75,9.00015 L15.75,6.75015 C15.75,3.0279 12.7215,0.00015 9,0.00015 C5.2785,0.00015 2.25,3.0279 2.25,6.75015 L2.25,9.00015 L0.75,9.00015 C0.336,9.00015 0,9.3354 0,9.75015 L0,15.8379 C0,20.50965 4.75125,24.00015 9,24.00015 C13.24875,24.00015 18,20.50965 18,15.8379 L18,9.75015 C18,9.3354 17.664,9.00015 17.25,9.00015 L17.25,9.00015 Z" id="Fill-3"></path>
                </g>
            </g>
        </g>
    </g>
</svg>