<?xml version="1.0" encoding="UTF-8"?>
<svg width="26px" height="26px" viewBox="0 0 26 26" version="1.1" xmlns="http://www.w3.org/2000/svg" xmlns:xlink="http://www.w3.org/1999/xlink">
    <!-- Generator: sketchtool 60.1 (101010) - https://sketch.com -->
    <title>58274257-27A0-4744-A534-7A0DDC835D50</title>
    <desc>Created with sketchtool.</desc>
    <g id="Mobile-UI" stroke="none" strokeWidth="1" fill="none" fillRule="evenodd">
        <g id="JYBE-account-not-logged-in-3" transform="translate(-57.000000, -318.000000)" fill="#27273B" stroke="#27273B" strokeWidth="0.5">
            <g id="Group-4-Copy" transform="translate(45.000000, 308.000000)">
                <g id="phone" transform="translate(13.000000, 11.000000)">
                    <path d="M19.3623807,23.7692308 L19.3334643,23.7692308 C16.0890511,23.6709152 12.0523302,21.2245929 7.32740034,16.4996631 C2.60825379,11.7747333 0.161931499,7.74379562 0.0578326783,4.50516564 C0.0115665357,2.99573273 3.51044357,0.485794497 3.54514318,0.456878158 C4.52251544,-0.219764177 5.60976979,0.0289163391 6.06086468,0.659292532 C6.33846154,1.04677148 8.93514879,4.9793936 9.21274565,5.42470522 C9.54239191,5.93941606 9.50190904,6.69702414 9.10286356,7.44306569 C8.91779899,7.79584503 8.3047726,8.87731611 7.97512633,9.4556429 C8.35103874,9.976137 9.24166199,11.1154408 10.9708591,12.8504211 C12.7058394,14.5854015 13.8451432,15.4760247 14.3656373,15.8519371 C14.9439641,15.5222908 16.0254351,14.9092645 16.3839978,14.7184166 C17.1184728,14.3309377 17.8702976,14.2846715 18.3850084,14.6027513 C18.8881527,14.9092645 22.867041,17.5580011 23.1504211,17.7546322 C23.7865806,18.2057271 24.0468276,19.2987647 23.3586188,20.2819203 C23.3354857,20.3166199 20.8602471,23.7692308 19.3623807,23.7692308 Z M4.78276249,1.46316676 C4.67866367,1.46316676 4.52251544,1.4920831 4.34901741,1.61353172 C3.33694554,2.3190904 1.56148231,3.973105 1.46316676,4.4762493 C1.57883212,8.02717574 5.25699045,12.4340258 8.3221224,15.4991578 C11.3872544,18.5642897 15.7941044,22.2482313 19.3623807,22.3581134 C19.8481752,22.2655811 21.4964065,20.4901179 22.2019652,19.4722628 C22.4101628,19.1773161 22.3638967,18.9459854 22.3234138,18.893936 C22.0342504,18.6973049 18.095845,16.0774846 17.6505334,15.805671 C17.598484,15.7883212 17.36137,15.7941044 17.037507,15.9618192 C16.5517125,16.2220663 14.6895003,17.2919708 14.6895003,17.2919708 C14.4697361,17.4192027 14.1979225,17.4134194 13.9839416,17.2861875 C13.9261089,17.2514879 12.5786075,16.4476137 9.976137,13.8451432 C7.37366648,11.2426727 6.56979225,9.90095452 6.54087591,9.84312184 C6.41364402,9.62335766 6.41364402,9.35732734 6.54087591,9.13756317 C6.54087591,9.13756317 7.61078046,7.26956766 7.86524424,6.78377316 C8.03874228,6.45991016 8.04452555,6.22857945 8.02717574,6.17074677 C7.70909601,5.67338574 5.1586749,1.81016283 4.92734419,1.48629983 C4.90421112,1.48051656 4.85794497,1.46316676 4.78276249,1.46316676 Z" id="Shape"></path>
                </g>
            </g>
        </g>
    </g>
</svg>