<?xml version="1.0" encoding="UTF-8"?>
<svg width="38px" height="42px" viewBox="0 0 38 42" version="1.1" xmlns="http://www.w3.org/2000/svg" xmlns:xlink="http://www.w3.org/1999/xlink">
    <!-- Generator: sketchtool 60.1 (101010) - https://sketch.com -->
    <title>79CDCDB4-AA2B-441D-A576-601711F418D7</title>
    <desc>Created with sketchtool.</desc>
    <g id="Mobile-UI" stroke="none" strokeWidth="1" fill="none" fillRule="evenodd">
        <g id="JYBE-account-not-logged-in-1" transform="translate(-189.000000, -637.000000)" stroke="#FFFFFF" strokeWidth="2">
            <g id="Bottom-button-bar---account" transform="translate(0.000000, 626.000000)">
                <g id="Bottom-button-bar">
                    <g id="Group-3">
                        <g id="Group-2-Copy-5" transform="translate(188.000000, 12.000000)">
                            <path d="M19.630512,12.4976115 C22.6066464,12.4976115 25.01928,8.28425348 25.01928,5.388768 C25.01928,2.49328252 22.6066464,0 19.630512,0 C16.6543776,0 14.241744,2.84179711 14.241744,5.388768 C14.241744,7.93573889 16.6543776,12.4976115 19.630512,12.4976115 Z" id="Oval"></path>
                            <path d="M7.313328,21.17016 C9.43913828,21.17016 11.162448,15.3988066 11.162448,13.1109291 C11.162448,10.8230515 9.43913828,8.852976 7.313328,8.852976 C5.18751772,8.852976 3.464208,11.0984315 3.464208,13.1109291 C3.464208,15.1234267 5.18751772,21.17016 7.313328,21.17016 Z" id="Oval-Copy-11" transform="translate(7.313328, 15.011568) rotate(-45.000000) translate(-7.313328, -15.011568) "></path>
                            <path d="M7.313328,40.563865 C9.43913828,40.563865 11.162448,34.7925117 11.162448,32.5046341 C11.162448,30.2167566 9.43913828,28.246681 7.313328,28.246681 C5.18751772,28.246681 3.464208,30.4921365 3.464208,32.5046341 C3.464208,34.5171317 5.18751772,40.563865 7.313328,40.563865 Z" id="Oval-Copy-13" transform="translate(7.313328, 34.405273) scale(1, -1) rotate(-45.000000) translate(-7.313328, -34.405273) "></path>
                            <path d="M31.947696,21.17016 C34.0735063,21.17016 35.796816,15.3988066 35.796816,13.1109291 C35.796816,10.8230515 34.0735063,8.852976 31.947696,8.852976 C29.8218857,8.852976 28.098576,11.0984315 28.098576,13.1109291 C28.098576,15.1234267 29.8218857,21.17016 31.947696,21.17016 Z" id="Oval-Copy-12" transform="translate(31.947696, 15.011568) scale(-1, 1) rotate(-45.000000) translate(-31.947696, -15.011568) "></path>
                            <path d="M31.947696,40.563865 C34.0735063,40.563865 35.796816,34.7925117 35.796816,32.5046341 C35.796816,30.2167566 34.0735063,28.246681 31.947696,28.246681 C29.8218857,28.246681 28.098576,30.4921365 28.098576,32.5046341 C28.098576,34.5171317 29.8218857,40.563865 31.947696,40.563865 Z" id="Oval-Copy-14" transform="translate(31.947696, 34.405273) scale(-1, -1) rotate(-45.000000) translate(-31.947696, -34.405273) "></path>
                            <rect id="Rectangle" fill="#F56D70" x="8.083152" y="10.392624" width="23.09472" height="28.098576" rx="11.54736"></rect>
                            <rect id="Rectangle-Copy" fill="#F56D70" x="13.47192" y="16.166304" width="12.317184" height="16.551216" rx="6.158592"></rect>
                        </g>
                    </g>
                </g>
            </g>
        </g>
    </g>
</svg>