<?xml version="1.0" encoding="UTF-8"?>
<svg width="27px" height="22px" viewBox="0 0 27 22" version="1.1" xmlns="http://www.w3.org/2000/svg" xmlns:xlink="http://www.w3.org/1999/xlink">
    <!-- Generator: sketchtool 60.1 (101010) - https://sketch.com -->
    <title>594718C0-16CD-4031-9D3A-5E8AB50E67D6</title>
    <desc>Created with sketchtool.</desc>
    <g id="Mobile-UI" stroke="none" strokeWidth="1" fill="none" fillRule="evenodd">
        <g id="JYBE-review-4" transform="translate(-288.000000, -428.000000)" fill="#55ACEE">
            <g id="Group-5-Copy" transform="translate(266.000000, 403.000000)">
                <path d="M49.0175053,27.5991572 C48.0234912,28.0400063 46.9552175,28.3380484 45.8339123,28.4719782 C46.9784526,27.7859642 47.8573719,26.6997046 48.2711263,25.4053326 C47.2002281,26.0405537 46.0139263,26.5018589 44.7512807,26.7504204 C43.740207,25.6731151 42.2996316,24.9999923 40.7053649,24.9999923 C37.6440456,24.9999923 35.1622912,27.4818239 35.1622912,30.5428344 C35.1622912,30.9773537 35.2112316,31.400294 35.305793,31.8060975 C30.6990702,31.5749046 26.6147123,29.3681888 23.8808456,26.0146168 C23.4037158,26.8332484 23.1304526,27.7854239 23.1304526,28.8012835 C23.1304526,30.7242379 24.1089509,32.4208625 25.5962281,33.4149537 C24.6876667,33.3861607 23.832986,33.1368274 23.0856035,32.7216063 C23.0852175,32.7447642 23.0851404,32.7679221 23.0851404,32.7913116 C23.0851404,35.4770098 24.9958211,37.7173046 27.5315333,38.2264695 C27.0663684,38.353066 26.5767333,38.4208414 26.0711965,38.4208414 C25.7140246,38.4208414 25.3668105,38.3861046 25.0283193,38.3214168 C25.7337088,40.5235782 27.7807123,42.1261818 30.2062702,42.1709537 C28.3091754,43.6575361 25.9192035,44.5437116 23.3222772,44.5437116 C22.8747895,44.5437116 22.4336316,44.517466 21.9999614,44.4663642 C24.4530772,46.0390168 27.3665719,46.956687 30.4968246,46.956687 C40.6923965,46.956687 46.2677368,38.5104625 46.2677368,31.1856204 C46.2677368,30.9453186 46.2623333,30.7062519 46.2517579,30.4684975 C47.3346211,29.6869958 48.2744456,28.7107361 49.0175053,27.5991572" id="Fill-1"></path>
            </g>
        </g>
    </g>
</svg>